<svg width="20" height="20" viewBox="0 0 20 20" fill="none" xmlns="http://www.w3.org/2000/svg">
<g clip-path="url(#clip0_63_1132)">
<path d="M12.5 5.83332L7.08333 11.25C6.75181 11.5815 6.56556 12.0312 6.56556 12.5C6.56556 12.9688 6.75181 13.4185 7.08333 13.75C7.41485 14.0815 7.86449 14.2678 8.33333 14.2678C8.80217 14.2678 9.25181 14.0815 9.58333 13.75L15 8.33332C15.663 7.67028 16.0355 6.77101 16.0355 5.83332C16.0355 4.89564 15.663 3.99637 15 3.33332C14.337 2.67028 13.4377 2.29779 12.5 2.29779C11.5623 2.29779 10.663 2.67028 10 3.33332L4.58333 8.74999C3.58877 9.74455 3.03003 11.0935 3.03003 12.5C3.03003 13.9065 3.58877 15.2554 4.58333 16.25C5.57789 17.2446 6.92681 17.8033 8.33333 17.8033C9.73985 17.8033 11.0888 17.2446 12.0833 16.25L17.5 10.8333" stroke="#B2B4B5" stroke-width="1.3" stroke-linecap="round" stroke-linejoin="round"/>
</g>
<defs>
<clipPath id="clip0_63_1132">
<rect width="20" height="20" fill="white"/>
</clipPath>
</defs>
</svg>
