<svg width="20" height="20" viewBox="0 0 20 20" fill="none" xmlns="http://www.w3.org/2000/svg">
<g clip-path="url(#clip0_63_1127)">
<path d="M7.5 12.5L12.5 7.5" stroke="#B2B4B5" stroke-width="1.3" stroke-linecap="round" stroke-linejoin="round"/>
<path d="M9.16675 4.99999L9.55258 4.55332C10.3341 3.77193 11.394 3.33299 12.4991 3.33307C13.6043 3.33315 14.6641 3.77224 15.4455 4.55374C16.2269 5.33524 16.6658 6.39515 16.6658 7.50028C16.6657 8.60542 16.2266 9.66526 15.4451 10.4467L15.0001 10.8333" stroke="#B2B4B5" stroke-width="1.3" stroke-linecap="round" stroke-linejoin="round"/>
<path d="M10.8334 15L10.5025 15.445C9.71191 16.2268 8.64486 16.6653 7.53295 16.6653C6.42105 16.6653 5.354 16.2268 4.56337 15.445C4.17367 15.0597 3.86428 14.6008 3.65313 14.0951C3.44198 13.5894 3.33325 13.0468 3.33325 12.4987C3.33325 11.9507 3.44198 11.4081 3.65313 10.9024C3.86428 10.3966 4.17367 9.93782 4.56337 9.55249L5.00004 9.16666" stroke="#B2B4B5" stroke-width="1.3" stroke-linecap="round" stroke-linejoin="round"/>
</g>
<defs>
<clipPath id="clip0_63_1127">
<rect width="20" height="20" fill="white"/>
</clipPath>
</defs>
</svg>
