<svg width="16" height="17" viewBox="0 0 16 17" fill="none" xmlns="http://www.w3.org/2000/svg">
<path d="M6.10671 7.74668C6.04004 7.74001 5.96004 7.74001 5.88671 7.74668C4.30004 7.69334 3.04004 6.39334 3.04004 4.79334C3.04004 3.16001 4.36004 1.83334 6.00004 1.83334C7.63337 1.83334 8.96004 3.16001 8.96004 4.79334C8.95337 6.39334 7.69337 7.69334 6.10671 7.74668Z" stroke="#64D25F" stroke-width="1.3" stroke-linecap="round" stroke-linejoin="round"/>
<path d="M10.9399 3.16666C12.2333 3.16666 13.2733 4.21332 13.2733 5.49999C13.2733 6.75999 12.2733 7.78666 11.0266 7.83332C10.9733 7.82666 10.9133 7.82666 10.8533 7.83332" stroke="#64D25F" stroke-width="1.3" stroke-linecap="round" stroke-linejoin="round"/>
<path d="M2.77323 10.2067C1.1599 11.2867 1.1599 13.0467 2.77323 14.12C4.60657 15.3467 7.61323 15.3467 9.44657 14.12C11.0599 13.04 11.0599 11.28 9.44657 10.2067C7.6199 8.98666 4.61323 8.98666 2.77323 10.2067Z" stroke="#64D25F" stroke-width="1.3" stroke-linecap="round" stroke-linejoin="round"/>
<path d="M12.2266 13.8333C12.7066 13.7333 13.1599 13.54 13.5332 13.2533C14.5732 12.4733 14.5732 11.1867 13.5332 10.4067C13.1666 10.1267 12.7199 9.94001 12.2466 9.83334" stroke="#64D25F" stroke-width="1.3" stroke-linecap="round" stroke-linejoin="round"/>
</svg>
