<svg width="18" height="18" viewBox="0 0 18 18" fill="none" xmlns="http://www.w3.org/2000/svg">
<path d="M8.40289 4.44688L9.00342 5.24957L9.60395 4.44688C10.2266 3.61469 11.2233 3.0751 12.3334 3.0751C14.2182 3.0751 15.7534 4.61081 15.7534 6.5176C15.7534 7.32853 15.6242 8.07572 15.3998 8.76923L15.3998 8.76923L15.3983 8.77411C14.8595 10.4792 13.7506 11.8664 12.5355 12.9107C11.3172 13.9578 10.0353 14.6225 9.22683 14.8976L9.22682 14.8975L9.2188 14.9004C9.19654 14.9082 9.11855 14.9251 9.00342 14.9251C8.88829 14.9251 8.8103 14.9082 8.78803 14.9004L8.78805 14.9003L8.78 14.8976C7.97156 14.6225 6.68967 13.9578 5.47132 12.9107C4.25628 11.8664 3.14736 10.4792 2.60856 8.77411L2.60858 8.77411L2.607 8.76923C2.38263 8.07572 2.25342 7.32853 2.25342 6.5176C2.25342 4.61081 3.78863 3.0751 5.67342 3.0751C6.78357 3.0751 7.78029 3.61469 8.40289 4.44688Z" stroke="#6B6D6F" stroke-width="1.5"/>
</svg>
