<svg width="16" height="14" viewBox="0 0 16 14" fill="none" xmlns="http://www.w3.org/2000/svg">
<path d="M7.40289 2.44688L8.00342 3.24957L8.60395 2.44688C9.22655 1.61469 10.2233 1.0751 11.3334 1.0751C13.2182 1.0751 14.7534 2.61081 14.7534 4.5176C14.7534 5.32853 14.6242 6.07572 14.3998 6.76923L14.3998 6.76923L14.3983 6.77411C13.8595 8.47917 12.7506 9.86643 11.5355 10.9107C10.3172 11.9578 9.03528 12.6225 8.22683 12.8976L8.22682 12.8975L8.2188 12.9004C8.19654 12.9082 8.11855 12.9251 8.00342 12.9251C7.88829 12.9251 7.8103 12.9082 7.78803 12.9004L7.78805 12.9003L7.78 12.8976C6.97156 12.6225 5.68967 11.9578 4.47132 10.9107C3.25628 9.86643 2.14736 8.47917 1.60856 6.77411L1.60858 6.77411L1.607 6.76923C1.38263 6.07572 1.25342 5.32853 1.25342 4.5176C1.25342 2.61081 2.78863 1.0751 4.67342 1.0751C5.78357 1.0751 6.78029 1.61469 7.40289 2.44688Z" stroke="#6B6D6F" stroke-width="1.5"/>
</svg>
