<svg width="20" height="20" viewBox="0 0 20 20" fill="none" xmlns="http://www.w3.org/2000/svg">
<path d="M15.8333 11.6667C16.75 11.6667 17.5 10.9167 17.5 9.99999C17.5 9.08332 16.75 8.33332 15.8333 8.33332C14.9167 8.33332 14.1667 9.08332 14.1667 9.99999C14.1667 10.9167 14.9167 11.6667 15.8333 11.6667Z" stroke="#82D540" stroke-width="1.5" stroke-linecap="round" stroke-linejoin="round"/>
<path d="M4.16659 11.6667C5.08325 11.6667 5.83325 10.9167 5.83325 9.99999C5.83325 9.08332 5.08325 8.33332 4.16659 8.33332C3.24992 8.33332 2.49992 9.08332 2.49992 9.99999C2.49992 10.9167 3.24992 11.6667 4.16659 11.6667Z" stroke="#82D540" stroke-width="1.5" stroke-linecap="round" stroke-linejoin="round"/>
<path d="M10.0001 11.6667C10.9167 11.6667 11.6667 10.9167 11.6667 9.99999C11.6667 9.08332 10.9167 8.33332 10.0001 8.33332C9.08342 8.33332 8.33342 9.08332 8.33342 9.99999C8.33342 10.9167 9.08341 11.6667 10.0001 11.6667Z" stroke="#82D540" stroke-width="1.5" stroke-linecap="round" stroke-linejoin="round"/>
</svg>
