<svg width="24" height="24" viewBox="0 0 24 24" fill="none" xmlns="http://www.w3.org/2000/svg">
<path opacity="0.4" d="M18.3847 5.94629L13.6283 3.19549C12.7175 2.67109 11.2915 2.67109 10.3807 3.19549L5.57828 5.96468C3.67388 7.25268 3.56348 7.44588 3.56348 9.49748V14.493C3.56348 16.5446 3.67388 16.747 5.61508 18.0534L10.3715 20.8042C10.8315 21.071 11.4203 21.1998 11.9999 21.1998C12.5795 21.1998 13.1683 21.071 13.6191 20.8042L18.4215 18.035C20.3259 16.747 20.4363 16.5538 20.4363 14.5022V9.49748C20.4363 7.44588 20.3259 7.25268 18.3847 5.94629Z" fill="white"/>
<path d="M12.0007 14.99C13.6521 14.99 14.9907 13.6513 14.9907 12C14.9907 10.3487 13.6521 9.01001 12.0007 9.01001C10.3494 9.01001 9.01074 10.3487 9.01074 12C9.01074 13.6513 10.3494 14.99 12.0007 14.99Z" fill="white"/>
</svg>
