<svg width="20" height="20" viewBox="0 0 20 20" fill="none" xmlns="http://www.w3.org/2000/svg">
<path d="M7.50008 18.3333H12.5001C16.6667 18.3333 18.3334 16.6667 18.3334 12.5V7.49999C18.3334 3.33332 16.6667 1.66666 12.5001 1.66666H7.50008C3.33341 1.66666 1.66675 3.33332 1.66675 7.49999V12.5C1.66675 16.6667 3.33341 18.3333 7.50008 18.3333Z" stroke="#5097FF" stroke-width="1.5" stroke-linecap="round" stroke-linejoin="round"/>
<path d="M7.58325 9.99999V8.76666C7.58325 7.17499 8.70825 6.53333 10.0833 7.32499L11.1499 7.94166L12.2166 8.55833C13.5916 9.34999 13.5916 10.65 12.2166 11.4417L11.1499 12.0583L10.0833 12.675C8.70825 13.4667 7.58325 12.8167 7.58325 11.2333V9.99999Z" stroke="#5097FF" stroke-width="1.5" stroke-miterlimit="10" stroke-linecap="round" stroke-linejoin="round"/>
</svg>
