<svg width="15" height="14" viewBox="0 0 15 14" fill="none" xmlns="http://www.w3.org/2000/svg">
<path d="M11.4376 10.7679H11.1694C9.06016 10.7679 6.951 10.7679 4.82958 10.7679C3.82751 10.7441 2.86556 10.4604 2.10141 9.96312C1.33725 9.46587 0.816091 8.78454 0.623241 8.03072C0.555751 7.76279 0.519076 7.49084 0.513554 7.218V0.790898C0.495482 0.688606 0.495482 0.584927 0.513554 0.482635C0.57042 0.328696 0.697917 0.195698 0.872678 0.108145C1.04744 0.0205929 1.25772 -0.0156223 1.46457 0.00619853C1.67155 0.00767951 1.87046 0.0675715 2.02342 0.174428C2.17638 0.281284 2.27255 0.427599 2.29354 0.58538C2.29963 0.675623 2.29963 0.766054 2.29354 0.856297C2.29354 2.9395 2.29354 5.0227 2.29354 7.1059C2.27238 7.43198 2.3493 7.7574 2.51842 8.05706C2.68755 8.35672 2.9444 8.6226 3.26897 8.83412C3.71048 9.1261 4.27077 9.29124 4.85384 9.30121H11.3767L11.2182 9.17041L8.85287 7.30207C8.72448 7.21379 8.63296 7.0985 8.58959 6.97057C8.54622 6.84264 8.55299 6.70776 8.60909 6.58277C8.64938 6.45665 8.73845 6.34279 8.86462 6.25612C8.9908 6.16944 9.14816 6.11398 9.31617 6.09701C9.46604 6.07599 9.62057 6.08564 9.764 6.125C9.90743 6.16437 10.0347 6.23206 10.1331 6.3212L13.7907 9.19843C13.9937 9.34905 14.1811 9.51147 14.3515 9.68422C14.468 9.81749 14.5185 9.97829 14.4939 10.1376C14.4693 10.2969 14.3713 10.4442 14.2174 10.553L10.2794 13.561L10.0599 13.7385C9.97962 13.815 9.87935 13.8776 9.76548 13.9225C9.65162 13.9673 9.52675 13.9934 9.39892 13.9989C9.27109 14.0044 9.14315 13.9893 9.02343 13.9546C8.9037 13.9198 8.79485 13.8662 8.70389 13.7971C8.61293 13.7281 8.54187 13.6452 8.49538 13.5538C8.44889 13.4624 8.42806 13.3645 8.43406 13.2665C8.44006 13.1685 8.47275 13.0726 8.53021 12.985C8.58766 12.8973 8.66859 12.8198 8.76759 12.7576L11.206 10.8893L11.4376 10.7679Z" fill="#10D73C"/>
</svg>
